<svg width="79" height="79" viewBox="0 0 79 79" fill="none" xmlns="http://www.w3.org/2000/svg">
<g clip-path="url(#clip0_354_6)">
<path d="M43.7375 27.7954C43.7375 28.0272 43.7696 28.2511 43.8239 28.4662C43.5566 28.4943 43.2924 28.5449 43.0352 28.623C42.2248 27.7054 41.0654 27.1813 39.8382 27.1813C38.8019 27.1813 37.832 27.5474 37.0704 28.1951C36.3263 27.7883 35.475 27.5562 34.5729 27.5562L34.5133 27.5565L33.8276 27.5642C34.2675 25.7593 35.5149 24.1731 37.3492 23.3732C40.11 22.1693 43.2707 23.1504 44.9023 25.5556C44.199 26.0526 43.7375 26.8705 43.7375 27.7954V27.7954Z" fill="#D6A354"/>
<path d="M45.7968 37.2073C45.8714 37.0137 45.9313 36.818 45.9764 36.6207C47.1724 36.0997 48.0498 35.072 48.3867 33.8527L50.2236 32.6586C52.0528 31.4697 54.5057 31.8837 55.8228 33.6227L64.9061 45.6393L57.6071 45.1981L53.8519 41.7041L57.4121 47.0634L67.3513 47.6643C68.8893 47.7573 70.0608 49.0793 69.9678 50.6174C69.8749 52.1536 68.5546 53.3271 67.0146 53.2339L55.6886 52.5492C54.8152 52.4965 54.0171 52.0369 53.5331 51.3081L49.2042 44.7915L51.9724 52.3449C52.8262 54.6748 55.355 54.3579 55.5756 54.4196L66.9016 55.1043C68.7118 55.2137 70.3421 54.2746 71.2032 52.8122L74.2813 53.6069C75.6078 53.9493 76.5918 55.0654 76.7654 56.4241L78.9725 73.6993C79.2283 75.7015 77.6683 77.4719 75.6474 77.4719C73.9875 77.4719 72.5467 76.238 72.3307 74.548L70.8229 62.7475H63.1994V70.5871C67.2899 71.312 70.5978 73.8334 71.8784 75.8737C72.3146 76.5687 71.8108 77.4719 70.9902 77.4719H50.8292C50.0088 77.4719 49.5048 76.5685 49.941 75.8737C51.2218 73.8336 54.5296 71.312 58.62 70.5871V62.7475H52.1605C51.1892 62.7475 50.2722 62.2991 49.6758 61.5325L40.5851 49.8485C39.5174 48.4762 39.7643 46.4983 41.1366 45.4306C42.3462 44.4895 44.0259 44.571 45.1385 45.5433L42.9754 42.6893C42.3808 41.905 42.089 40.9398 42.1379 39.9675C43.7639 39.8422 45.1943 38.7677 45.7968 37.2073V37.2073Z" fill="#D6A354"/>
<path d="M39.8384 28.9866C40.5942 28.9866 41.2698 29.3271 41.7212 29.863C42.1558 30.3794 42.8725 30.5695 43.5264 30.3607C45.072 29.8675 46.6574 31.0034 46.733 32.5875C46.8007 34.0056 45.6608 35.2051 44.21 35.1687C44.3069 35.597 44.3032 36.0635 44.1126 36.557C43.7628 37.4629 42.9226 38.1177 41.9531 38.1729C41.9048 38.1757 41.8568 38.1771 41.8091 38.1771C41.1465 38.1771 40.5458 37.9151 40.1037 37.4892C39.2666 36.6829 38.5418 37.1056 37.757 36.9659C39.0464 35.9791 39.835 34.4246 39.8162 32.7412C39.8017 31.4534 39.3155 30.2746 38.5253 29.3669C38.9103 29.1227 39.3524 28.9866 39.8384 28.9866V28.9866Z" fill="#D6A354"/>
<path d="M46.4802 26.8582C45.9627 26.8582 45.5431 27.2777 45.5431 27.7952C45.5431 28.3127 45.9627 28.7322 46.4802 28.7322C46.9977 28.7322 47.4172 28.3127 47.4172 27.7952C47.4172 27.2777 46.9977 26.8582 46.4802 26.8582Z" fill="#D6A354"/>
<path d="M0.206853 72.3355L6.88922 52.6307L7.25508 44.7895V21.5797C7.25508 19.0751 9.28548 17.0447 11.7901 17.0447H19.8773C22.3819 17.0447 24.4123 19.0751 24.4123 21.5797V21.7349L29.0301 19.0309C29.6517 20.7546 31.1551 21.9739 32.9078 21.9739C34.6351 21.9739 36.1211 20.7901 36.7587 19.1059C37.0482 20.3807 36.4927 21.7294 35.3261 22.4123L26.3843 27.6483L24.9506 27.6644L19.6523 23.0373L24.2805 29.8352L34.8286 29.7167C36.5127 29.6979 37.8933 31.0476 37.9122 32.7319C37.9271 34.0658 37.0832 35.2093 35.895 35.6365C35.583 35.7487 35.2474 35.8116 34.8971 35.8155C21.9331 35.9567 22.7328 35.9618 22.4752 35.9446C21.5052 35.9227 20.6027 35.4357 20.0541 34.6302L14.4115 26.1775L17.9703 35.4317C18.4647 36.7176 20.3437 38.1795 22.5433 38.1795C24.8894 38.1536 24.3228 38.1599 24.4124 38.1588V43.9591L25.5133 55.3021C25.5255 55.4274 25.5315 55.5532 25.5315 55.6789L25.525 73.5865C25.5242 75.7328 23.7842 77.4722 21.6381 77.472H21.6367C19.49 77.4712 17.7504 75.7303 17.7512 73.5836L17.7577 55.8647L16.6885 44.8472H15.0307C15.0306 45.0393 15.0503 44.4829 14.6297 53.541C14.6127 53.9044 14.5448 54.2636 14.428 54.6082L7.56941 74.8324C6.87996 76.8656 4.67303 77.9545 2.64 77.2651C0.606669 76.5755 -0.482601 74.3685 0.206853 72.3355V72.3355Z" fill="#D6A354"/>
<path d="M15.6567 14.9385C11.9565 14.6752 9.17034 11.4622 9.43358 7.76202C9.69682 4.06183 12.9098 1.27562 16.61 1.53886C20.3102 1.8021 23.0964 5.0151 22.8332 8.7153C22.5699 12.4155 19.3569 15.2017 15.6567 14.9385Z" fill="#D6A354"/>
<path d="M38.58 37.7998C38.9983 37.7998 39.3374 38.1389 39.3374 38.5572C39.3374 38.9607 39.0015 39.3147 38.58 39.3147C38.147 39.3147 37.8225 38.9512 37.8225 38.5572C37.8225 38.1389 38.1617 37.7998 38.58 37.7998Z" fill="#D6A354"/>
<path d="M46.4802 28.7324C45.9627 28.7324 45.5431 28.3128 45.5431 27.7953C45.5431 27.2778 45.9627 26.8583 46.4802 26.8583C46.9977 26.8583 47.4172 27.2778 47.4172 27.7953C47.4172 28.3128 46.9977 28.7324 46.4802 28.7324Z" fill="#D6A354"/>
<path d="M30.5298 17.2678C30.5298 16.5454 30.7477 15.8862 31.1058 15.3783C30.7696 15.2501 30.5298 14.927 30.5298 14.5458C30.5298 14.0525 30.9297 13.6525 31.4231 13.6525H31.4388C31.1311 13.3056 30.9427 12.8504 30.9427 12.3503C30.9427 11.2649 31.8226 8.24121 32.9078 8.24121C33.372 10.4549 34.873 11.2654 34.873 12.3503C34.873 12.8504 34.6845 13.3056 34.3769 13.6525H34.3926C34.8859 13.6525 35.2859 14.0525 35.2859 14.5458C35.2859 14.927 35.0459 15.2501 34.7099 15.3783C35.068 15.8862 35.2859 16.5454 35.2859 17.2678C35.2859 18.8699 34.2212 20.1685 32.9078 20.1685C31.5945 20.1685 30.5298 18.8699 30.5298 17.2678Z" fill="#D6A354"/>
</g>
<defs>
<clipPath id="clip0_354_6">
<rect width="79" height="79" fill="white" transform="matrix(-1 0 0 1 79 0)"/>
</clipPath>
</defs>
</svg>
