<svg width="62" height="57" viewBox="0 0 62 57" fill="none" xmlns="http://www.w3.org/2000/svg">
<g clip-path="url(#clip0_110_2566)">
<path d="M21.0499 4.68496C19.7595 7.04786 19.7707 9.3996 21.418 11.0443C26.4084 16.0306 31.4954 20.9239 36.7015 26.0069C36.7498 25.9362 36.9171 25.5902 37.1775 25.3334C38.6922 23.8202 38.7368 22.2995 37.3113 20.7713C36.8725 20.3025 36.0767 19.7889 36.8465 19.1303C37.527 18.5461 38.0588 19.2531 38.5385 19.7369C42.5025 23.7408 46.5223 27.6926 50.4045 31.7747C51.5238 32.9505 52.1969 33.0398 53.3013 31.8528C54.5322 30.5318 55.9415 29.3857 58.0016 30.0146C61.1253 30.9709 62.1442 34.4352 59.8238 36.7126C58.9462 37.5759 59.0689 38.0708 59.6155 38.9415C60.8203 40.8542 61.6422 42.8896 61.155 45.2451C61.036 45.8256 60.9133 46.4656 60.2402 46.4172C59.3552 46.3502 59.5002 45.5949 59.6006 44.9846C59.9985 42.5845 58.9164 40.6793 57.5889 38.7927C47.2512 47.4554 35.3628 52.6873 22.251 55.2809C16.4165 56.4345 10.5299 57.0745 4.57272 56.9926C2.04407 56.9591 0.352101 55.4 0.30004 53.0855C0.24798 50.7933 1.87673 49.0778 4.39051 49.0071C12.8206 48.7727 21.1094 47.7047 29.1824 45.1372C35.1992 43.2208 40.8849 40.6309 46.2137 37.2372C46.7268 36.9098 47.3813 35.8902 48.0172 37.0103C48.5787 38.0001 47.53 38.2568 46.9723 38.6178C38.5756 44.0506 29.3572 47.3661 19.5624 49.1485C14.6278 50.0453 9.6449 50.4881 4.63222 50.5923C2.90678 50.6258 1.94366 51.504 1.92135 52.9664C1.89904 54.466 2.95141 55.4335 4.75865 55.4298C13.33 55.4037 21.7378 54.2018 29.9485 51.7384C40.4275 48.5941 49.8839 43.5817 58.0611 36.2325C59.1842 35.2241 59.8944 34.1822 59.1098 32.6938C58.3623 31.276 56.5774 31.1272 55.1346 32.3254C53.755 33.4678 52.3903 34.6325 51.0107 35.7786C50.5719 36.1432 50.0699 36.493 49.579 35.8939C49.1737 35.399 49.434 34.9302 49.8802 34.6325C50.676 34.1003 50.1517 33.7506 49.7612 33.3561C46.9723 30.5392 44.1759 27.7298 41.4092 24.8906C40.8886 24.3585 40.4796 24.0906 39.959 24.8273C39.8883 24.9278 39.7879 25.0059 39.6949 25.0915C37.4117 27.2795 35.1731 27.2671 32.9791 25.0543C28.9668 21.0095 24.9432 16.9758 20.9383 12.9198C17.6473 9.58938 17.6548 5.63012 21.0127 2.32205C24.1512 -0.773917 23.2252 -0.759032 26.2522 2.28856C34.7641 10.8583 43.2499 19.4466 51.7469 28.0275C52.0965 28.381 52.4498 28.7271 52.7882 29.088C53.1303 29.4564 53.1526 29.8657 52.8291 30.2527C52.4609 30.6918 52.0667 30.5616 51.706 30.2378C51.3825 29.9476 51.0813 29.6387 50.7764 29.3336C42.1009 20.5741 33.4403 11.8109 24.7536 3.06627C24.2999 2.60857 23.969 1.54434 22.9315 2.60113C21.9126 3.63932 22.9315 3.98911 23.3963 4.46541C26.9996 8.1307 30.6513 11.7513 34.2398 15.4315C34.7492 15.9525 36.0879 16.5069 35.0876 17.4298C34.1654 18.2819 33.6076 17.0093 33.0535 16.4734C29.0597 12.5923 25.1031 8.67771 21.0499 4.68868V4.68496Z" fill="#D6A354"/>
<path d="M9.09453 54.4362C8.35453 54.4362 7.60709 54.4771 6.8708 54.425C6.27583 54.3841 5.33874 54.8306 5.29411 53.7366C5.25321 52.7059 6.12336 52.8696 6.78156 52.8659C8.69664 52.8547 10.6043 52.8361 12.5082 52.5421C14.3935 52.2519 16.2975 52.0733 18.194 51.8314C18.8075 51.7533 19.5773 51.5337 19.7781 52.3077C20.0384 53.3087 19.0827 53.3459 18.4691 53.4389C15.3604 53.9078 12.2479 54.399 9.09081 54.4399L9.09453 54.4362Z" fill="#D6A354"/>
<path d="M55.1753 36.8055C54.3572 36.679 53.8217 36.2362 53.8069 35.4883C53.7883 34.6361 54.32 34.1114 55.2125 34.1524C56.0194 34.1896 56.4434 34.7143 56.421 35.492C56.3987 36.2846 55.8409 36.653 55.179 36.8093L55.1753 36.8055Z" fill="#D6A354"/>
<path d="M23.4483 51.4518C23.3628 52.0807 22.9388 52.3747 22.3476 52.49C21.8456 52.5905 21.4254 52.3747 21.3398 51.9058C21.1911 51.0648 21.9013 50.8788 22.4889 50.7336C22.9835 50.6146 23.2698 50.983 23.4446 51.4481L23.4483 51.4518Z" fill="#D6A354"/>
</g>
<defs>
<clipPath id="clip0_110_2566">
<rect width="61" height="57" fill="white" transform="translate(0.29248)"/>
</clipPath>
</defs>
</svg>
