<svg width="101" height="101" viewBox="0 0 101 101" fill="none" xmlns="http://www.w3.org/2000/svg">
<g clip-path="url(#clip0_354_22)">
<path d="M74.9168 45.6067C68.4001 45.8221 63.2408 40.4065 63.5456 34.0481C63.6126 32.6601 63.9438 31.325 64.5189 30.057C66.685 25.2754 68.8268 20.4837 71.0417 15.7245C72.395 12.8166 75.7337 12.148 77.8673 14.2797C78.3387 14.7511 78.6496 15.3303 78.924 15.9298C81.0312 20.5569 83.1628 25.1759 85.2334 29.8192C88.3709 36.8524 84.3759 44.2533 76.7842 45.5071C76.1726 45.6087 75.5406 45.5762 74.9168 45.6067V45.6067Z" fill="#D6A354"/>
<path d="M100.864 58.0618C100.132 54.7088 96.2573 52.5304 92.3538 54.5849C88.0967 56.8243 83.7562 58.9072 79.4483 61.0511C78.7778 61.3863 78.1031 61.6932 77.333 61.7846C75.4635 62.0082 73.59 61.9106 71.7226 61.872C69.532 61.8253 68.0344 60.6365 66.9453 58.6633C67.4147 58.6633 67.7662 58.6654 68.1177 58.6633C71.1069 58.641 74.1 58.6897 77.0871 58.5719C79.5418 58.4743 81.4702 56.2512 81.4682 53.7517C81.4662 51.2542 79.5154 49.0088 77.077 48.9376C71.1638 48.7629 65.2465 48.8421 59.3313 48.897C55.7122 48.9295 52.3634 49.9171 49.2951 51.8395C49.1833 51.9086 49.0695 51.9634 48.911 51.8293C48.911 49.3969 48.8683 46.9319 48.9191 44.469C49.0329 38.9925 45.3387 34.0097 39.9193 32.9063C39.2365 32.7681 39.078 32.4511 39.0882 31.7825C39.1308 29.1205 39.076 26.4564 39.1247 23.7943C39.139 23.0059 38.9784 22.7031 38.1189 22.7437C36.5441 22.8189 34.9631 22.7295 33.3863 22.7823C32.7137 22.8047 32.5552 22.5791 32.5714 21.9451C32.6141 20.4332 32.6365 18.9193 32.5654 17.4094C32.5247 16.5681 32.7178 16.3101 33.62 16.3202C38.9784 16.371 44.3349 16.3344 49.6933 16.3588C50.3233 16.3609 50.5448 16.2186 50.5163 15.5561C50.4614 14.2759 50.5021 12.9936 50.5 11.7114C50.494 8.54739 48.4497 6.51528 45.2574 6.51325C41.1161 6.50918 36.9749 6.52544 32.8316 6.50918C29.5193 6.49699 26.4632 5.60083 23.9089 3.45898C22.1573 1.98977 20.4504 0.524615 18.1501 0.00439453H14.6002C14.3828 0.343757 14.0028 0.329532 13.6756 0.43317C9.64203 1.71543 7.23814 6.28362 8.4858 10.3499C9.53027 13.7496 11.8224 15.7289 15.3622 16.1902C16.0429 16.2796 16.299 16.495 16.2685 17.2286C16.2035 18.836 16.2258 20.4495 16.2603 22.0589C16.2725 22.6177 16.112 22.7925 15.5471 22.7803C13.9703 22.7458 12.3893 22.8148 10.8145 22.7498C9.97731 22.7153 9.6786 22.8941 9.70299 23.8146C9.77614 26.4096 9.67657 29.0087 9.75582 31.6037C9.78427 32.5263 9.45711 32.7945 8.62398 32.9774C3.82433 34.0301 0.0163035 38.7446 0.0122394 43.6379C-0.00198477 59.0535 -0.00604883 74.4711 0.0122394 89.8867C0.0203676 95.8692 5.15327 100.974 11.1518 100.988C19.9932 101.008 28.8366 100.99 37.6779 100.996C38.9398 100.996 40.157 100.767 41.3295 100.336C45.9117 98.6532 48.8785 94.4407 48.9029 89.5352C48.9293 84.2435 48.911 78.9499 48.909 73.6583C48.909 73.2376 48.8826 72.8759 49.3377 72.565C52.4406 70.4496 55.824 69.6164 59.5182 70.3561C62.8182 71.0165 66.1101 71.7379 69.3837 72.5203C75.9207 74.083 82.1103 73.2864 87.9849 70.0025C90.8399 68.4073 93.6888 66.7918 96.6068 65.3124C98.6368 64.2841 100.287 62.9978 100.998 60.7523V58.1878C100.951 58.1451 100.874 58.1086 100.862 58.0578L100.864 58.0618ZM12.0622 10.484C11.1457 8.82782 11.2229 7.1493 12.2166 5.5419C13.7589 3.0485 17.6056 2.45918 19.9099 4.41001C21.4867 5.74714 23.0372 7.09443 24.9148 8.01498C27.4629 9.26676 30.1676 9.80527 32.9799 9.82152C36.9871 9.84794 40.9922 9.82559 44.9993 9.82965C46.8526 9.82965 47.6898 10.9595 47.1878 12.7315C47.0415 13.2477 46.6514 13.0058 46.3852 13.0058C42.4451 13.0241 38.5029 13.018 34.5628 13.018C33.4798 13.018 32.3947 13.018 31.3116 13.018C26.386 13.018 21.4583 13.0302 16.5326 13.0119C14.586 13.0058 13.0233 12.2194 12.0601 10.482L12.0622 10.484ZM29.3019 21.9796C29.3121 22.5405 29.2105 22.7905 28.5602 22.7803C25.8028 22.7417 23.0433 22.7437 20.2858 22.7803C19.6498 22.7884 19.5258 22.569 19.54 21.9898C19.5766 20.3824 19.5949 18.7709 19.5339 17.1635C19.5055 16.4259 19.7819 16.308 20.4301 16.3304C21.7753 16.3771 23.1225 16.3446 24.4677 16.3446C25.8129 16.3446 27.2272 16.3731 28.6049 16.3304C29.182 16.3121 29.3161 16.5072 29.3039 17.0538C29.2694 18.6958 29.2735 20.3377 29.3039 21.9796H29.3019ZM13.8849 26.0459C17.3983 26.0825 20.9137 26.0622 24.4271 26.0622C27.9079 26.0622 31.3908 26.0906 34.8717 26.0418C35.6744 26.0317 35.8593 26.2735 35.8349 27.0294C35.78 28.6368 35.7942 30.2483 35.8308 31.8577C35.845 32.4328 35.652 32.5629 35.1054 32.5629C27.9791 32.5466 20.8507 32.5446 13.7244 32.5629C13.1534 32.5629 13.0172 32.3861 13.0274 31.8435C13.0599 30.2016 13.0741 28.5576 13.0233 26.9177C13.001 26.2308 13.1879 26.0378 13.8869 26.0459H13.8849ZM45.5744 89.4214C45.5683 94.0586 42.1911 97.6148 37.5824 97.6514C28.674 97.7205 19.7656 97.7083 10.8572 97.627C6.9313 97.5904 3.41792 94.083 3.37728 90.1651C3.29803 82.376 3.35493 74.5829 3.35493 66.7938C3.34477 66.7938 3.33258 66.7938 3.32242 66.7938C3.32242 59.3319 3.31022 51.87 3.32648 44.406C3.33664 39.2993 6.74639 35.8955 11.8387 35.8874C18.3147 35.8773 24.7908 35.8854 31.2669 35.8854C33.305 35.8854 35.3431 35.8651 37.3813 35.8915C42.0732 35.9504 45.5683 39.4517 45.5744 44.1561C45.5907 59.2445 45.5907 74.335 45.5744 89.4234V89.4214ZM97.6594 59.8785C97.5923 60.5877 97.2347 61.1486 96.6413 61.4676C92.1526 63.8818 87.8406 66.6536 83.1263 68.6146C78.7371 70.4394 74.1955 70.3033 69.6235 69.1876C66.2605 68.3667 62.8812 67.5701 59.4715 66.9828C56.1694 66.4158 52.9466 66.9543 49.9108 68.4337C49.6242 68.5739 49.3357 68.7121 48.913 68.9174C48.913 64.7556 48.9212 60.7462 48.9008 56.7389C48.8988 56.2797 49.0979 56.0439 49.4231 55.7798C52.5605 53.2335 56.1958 52.1585 60.1766 52.1443C65.4334 52.126 70.6923 52.1362 75.9492 52.1443C76.3068 52.1443 76.6787 52.1707 77.018 52.2703C77.713 52.4755 78.1092 52.9592 78.1296 53.705C78.1519 54.4955 77.7638 55.0258 77.0201 55.2351C76.6177 55.3489 76.1788 55.3693 75.7561 55.3713C72.3058 55.3916 68.8574 55.3998 65.407 55.4099C63.7062 55.416 62.2025 56.0013 60.8471 56.9868C59.3881 58.0476 57.9576 59.149 56.4945 60.2037C56.08 60.5024 56.0495 60.7178 56.3807 61.1059C56.9314 61.7521 57.3216 62.8352 57.9759 63.012C58.6688 63.201 59.3455 62.1829 60.0364 61.7034C60.8715 61.1262 61.6823 60.5085 62.4748 59.8704C62.9747 59.468 63.3262 59.2933 63.7326 60.0147C64.0984 60.667 64.6186 61.2339 65.0799 61.8314C66.6506 63.8635 68.6948 65.0279 71.2816 65.1356C73.4803 65.227 75.685 65.2677 77.8796 65.0746C78.9688 64.9791 79.9543 64.5077 80.9216 64.022C85.3108 61.8233 89.702 59.6306 94.0871 57.4237C95.0096 56.9604 95.8854 56.9015 96.7551 57.5314C97.572 58.1207 97.7447 58.9438 97.6574 59.8785H97.6594Z" fill="#D6A354"/>
<path d="M24.4168 74.9565C20.9034 74.9565 17.3921 74.9382 13.8787 74.9728C13.1939 74.9789 13.0009 74.8122 13.0049 74.1132C13.0253 71.634 12.9968 71.634 15.5064 71.634C21.9743 71.634 28.4402 71.6462 34.9082 71.6177C35.6743 71.6137 35.914 71.7986 35.9019 72.5932C35.8632 74.9585 35.8998 74.9606 33.5752 74.9606C30.5231 74.9606 27.4689 74.9606 24.4168 74.9606V74.9565Z" fill="#D6A354"/>
<path d="M24.4209 81.4673C20.9095 81.4673 17.3961 81.449 13.8848 81.4836C13.2102 81.4897 13.0009 81.3352 13.007 80.6301C13.0273 78.1489 12.9988 78.1489 15.5084 78.1489C21.9743 78.1489 28.4423 78.1611 34.9082 78.1326C35.6702 78.1286 35.9181 78.3074 35.9039 79.104C35.8653 81.4673 35.9018 81.4673 33.5792 81.4673C30.5271 81.4673 27.473 81.4673 24.4209 81.4673V81.4673Z" fill="#D6A354"/>
<path d="M24.5733 52.1297C20.0846 52.0505 16.4086 55.5579 16.3192 60.1342C16.1729 64.5256 19.7818 68.2769 24.3011 68.4313C28.5521 68.5756 32.4251 64.9463 32.5531 60.7012C32.6933 55.9948 29.2714 52.211 24.5754 52.1297H24.5733ZM24.4555 65.1088C21.7569 65.1088 19.542 62.9202 19.5542 60.2602C19.5664 57.5921 21.7793 55.4177 24.4758 55.4258C27.1195 55.4339 29.2592 57.5677 29.2978 60.2338C29.3364 62.9101 27.152 65.1088 24.4555 65.1088Z" fill="#D6A354"/>
</g>
<defs>
<clipPath id="clip0_354_22">
<rect width="101" height="101" fill="white"/>
</clipPath>
</defs>
</svg>
