<svg width="52" height="51" viewBox="0 0 52 51" fill="none" xmlns="http://www.w3.org/2000/svg">
<g clip-path="url(#clip0_110_2548)">
<path d="M49.4393 14.7506C49.1512 14.9933 48.9062 15.2859 48.6204 15.5309C48.4707 15.6579 48.2961 15.7713 48.1146 15.6375C47.8719 15.4606 47.9785 15.2315 48.1169 15.0432C48.3414 14.7393 48.6341 14.4966 48.8926 14.2198C49.3281 13.7526 49.7138 13.249 49.1535 12.6502C48.5547 12.006 47.9422 12.2192 47.3684 12.7364C47.0894 12.9882 46.8444 13.2785 46.5472 13.5121C46.3885 13.6346 46.2115 13.714 46.0391 13.562C45.8622 13.4078 45.9235 13.2195 46.0369 13.0539C46.2524 12.7432 46.554 12.505 46.799 12.2192C47.2527 11.6952 47.5748 11.1168 46.9805 10.5248C46.3794 9.92599 45.8395 10.3048 45.2838 10.7154C44.8778 11.017 44.5398 11.938 44.0158 11.4435C43.5781 11.0306 44.4264 10.6201 44.7235 10.2345C45.1727 9.65607 45.5651 9.05951 44.8982 8.44934C44.2835 7.88454 43.6529 8.15673 43.0745 8.63534C42.7252 8.92568 42.5029 9.43377 41.8428 9.42243C41.9177 8.73061 42.4961 8.47656 42.8 8.04332C43.1856 7.49213 43.3285 6.91598 42.8477 6.38974C42.3328 5.82721 41.7634 6.00867 41.2372 6.43057C41.1192 6.52357 41.0194 6.64152 40.897 6.72772C40.5522 6.96815 40.2142 7.68266 39.8354 7.28798C39.3591 6.79577 40.1666 6.52584 40.4161 6.16745C40.6066 5.89072 40.8901 5.6775 41.0013 5.34407C41.1306 4.95619 41.0852 4.59327 40.7745 4.30519C40.4796 4.0262 40.1348 3.91959 39.7333 4.06703C39.4453 4.17363 39.2343 4.40046 38.9825 4.55924C38.5788 4.81556 38.2544 5.70926 37.7758 5.20797C37.3335 4.74297 38.1886 4.38912 38.4903 4.01485C38.9553 3.43871 39.3228 2.86711 38.7217 2.21838C38.0616 1.50614 37.5286 2.0097 36.9819 2.47016C36.6054 2.78545 36.1835 3.62017 35.7797 3.20735C35.2489 2.6675 36.1744 2.33633 36.4806 1.94845C37.177 1.06382 37.1815 0.69863 36.3309 0H35.6527C34.5616 1.02073 33.3504 1.92804 32.3002 2.96464C22.7711 12.3939 13.3147 21.898 3.831 31.3771C2.27949 32.9263 1.17711 34.7251 0.634991 36.8663C0.571479 37.1159 0.684893 37.5037 0.29248 37.6262V41.48C0.448992 43.0361 0.975233 44.481 1.82584 45.7693C2.36796 46.5905 2.18876 47.1144 1.51962 47.6883C0.913989 48.2055 0.390016 48.7884 0.401358 49.6821C0.414968 50.6031 0.689429 50.8752 1.61035 50.8889C2.60613 50.907 3.17546 50.2424 3.76522 49.6163C4.23702 49.1128 4.66119 48.9336 5.32352 49.3578C6.68903 50.2333 8.17475 50.8344 9.81245 51H13.2126C13.2489 50.9388 13.2784 50.8299 13.3215 50.8253C16.1137 50.5078 18.3049 49.0901 20.2443 47.1417C26.4503 40.9039 32.6903 34.7001 38.9009 28.4692C43.0995 24.2593 47.4205 20.1673 51.2925 15.6398V14.9593C50.6143 14.1382 50.2287 14.0906 49.4393 14.7506ZM41.7748 22.4061C34.0309 30.15 26.2756 37.8825 18.5521 45.6469C16.6241 47.584 14.3853 48.6977 11.2891 48.7476C7.9139 48.5276 5.0536 46.9058 3.44993 43.4761C1.85079 40.0555 2.34301 36.8119 4.64531 33.8382C4.94472 33.4526 5.29857 33.1055 5.64562 32.7585C13.7071 24.6925 21.7822 16.6401 29.8187 8.54688C30.506 7.85505 30.8326 7.90495 31.4586 8.5741C32.9103 10.1279 32.9466 10.0938 31.4405 11.6C29.8663 13.1742 28.2853 14.7438 26.7134 16.3248C25.6949 17.3523 25.6791 17.7924 26.6567 18.7791C28.5961 20.7366 30.5445 22.6873 32.5021 24.6267C33.4978 25.6134 33.9356 25.6021 34.9563 24.5882C36.8572 22.6964 38.7625 20.8092 40.6316 18.888C41.0603 18.4479 41.2758 18.3935 41.7453 18.863C43.5327 20.6459 43.5554 20.6255 41.7748 22.4061ZM30.8167 16.0798C30.5854 15.8507 30.5491 15.6602 30.7986 15.4266C30.9778 15.2587 31.1343 15.1272 31.3611 15.354C32.8831 16.8783 34.4051 18.398 35.9249 19.9246C35.9975 19.9972 36.0292 20.1106 36.1041 20.2467C35.9612 20.3782 35.8364 20.5098 35.6935 20.6209C35.4826 20.7865 35.3487 20.6005 35.2263 20.4803C33.7541 19.015 32.2888 17.5429 30.8167 16.0798ZM34.0399 22.3335C33.6317 22.735 33.457 22.3743 33.246 22.1634C31.8511 20.782 30.4629 19.3938 29.086 17.992C28.9409 17.8446 28.5598 17.713 28.8637 17.3818C28.9862 17.248 29.1269 17.13 29.5193 16.7603C29.6009 16.9849 29.6168 17.2208 29.7438 17.3478C31.1207 18.7496 32.5134 20.1355 33.9038 21.5237C34.142 21.7596 34.4369 21.9411 34.0399 22.3335ZM32.7311 14.3696C32.3569 14.0044 32.4453 13.8116 32.7538 13.469C34.4437 11.5954 34.4346 11.5864 36.2062 13.3511C37.1407 14.2834 38.0389 15.2587 39.0211 16.1388C39.57 16.6333 39.5178 16.935 38.9939 17.3637C38.5561 17.7198 38.1886 18.1576 37.7826 18.5545C37.651 18.6816 37.5013 18.7904 37.3494 18.9175C37.1838 18.7723 37.0363 18.6566 36.9048 18.525C35.5143 17.1369 34.1397 15.7351 32.7311 14.3696ZM45.7511 18.4457C45.3541 18.9084 45.0955 19.0785 44.5443 18.5182C40.6542 14.5669 36.7165 10.6632 32.806 6.72999C32.6268 6.55079 32.1595 6.40789 32.3977 6.06084C32.688 5.63667 33.11 5.30097 33.5024 4.89722C33.7247 5.09229 33.8993 5.22838 34.0558 5.3849C38.0049 9.3317 41.9381 13.2944 45.9144 17.2117C46.5382 17.8264 46.089 18.0532 45.7511 18.4457Z" fill="#D6A454"/>
<path d="M27.979 24.5496C27.5503 23.6286 26.7973 23.1183 25.5406 23.0593C25.1323 23.0162 24.5176 23.1296 24.073 23.5651C21.9227 25.6746 19.7542 27.7682 17.6946 29.9639C16.8168 30.9007 17.0459 32.4568 17.9464 33.3527C18.8447 34.2487 20.3984 34.471 21.3352 33.5909C23.5287 31.529 25.645 29.381 27.7227 27.2012C28.4259 26.4662 28.4055 25.4637 27.979 24.5496ZM24.0186 28.6098C22.9298 29.7031 21.8388 30.7941 20.7477 31.8829C20.2964 32.3297 19.8019 32.7222 19.1985 32.1619C18.543 31.5495 18.9354 31.021 19.4185 30.5333C20.5096 29.4422 21.5938 28.3444 22.6962 27.2669C22.8777 27.09 23.016 26.6659 23.4016 26.9449C23.8213 27.2488 24.2137 27.5868 24.6447 27.9316C24.3203 28.2854 24.1751 28.4533 24.0186 28.6098ZM25.7969 26.7362C25.2321 26.684 24.6855 26.0965 24.5743 25.5589C24.4904 25.1461 25.087 24.7696 25.5905 24.7401C26.1644 24.7038 26.4615 25.0871 26.575 25.6111C26.5432 26.1736 26.144 26.7679 25.7969 26.7362Z" fill="#D6A454"/>
</g>
<defs>
<clipPath id="clip0_110_2548">
<rect width="51" height="51" fill="white" transform="translate(0.29248)"/>
</clipPath>
</defs>
</svg>
