<svg width="91" height="91" viewBox="0 0 91 91" fill="none" xmlns="http://www.w3.org/2000/svg">
<g clip-path="url(#clip0_354_32)">
<path d="M89.302 77.5319C88.2827 76.6937 87.1163 76.1005 85.9083 75.5883C83.3526 74.5074 80.667 73.853 77.9717 73.2402C77.6017 73.1569 77.4939 73.0858 77.5821 72.6839C78.0501 70.549 77.3861 68.9044 75.7272 67.9853C73.9973 67.027 71.7969 67.3603 70.3316 68.804C69.3784 69.7427 68.8026 70.9167 68.2488 72.1054C68.0332 72.5687 67.8274 73.0343 67.6166 73.5C67.5799 73.4829 67.5407 73.4657 67.5039 73.4486V72.8064C67.5039 59.8775 67.4941 46.9486 67.526 34.0196C67.526 33.1471 67.3594 32.6103 66.4968 32.2917C65.6245 31.9706 65.0585 31.2721 64.7669 30.3922C64.223 28.7476 64.8796 27.1716 66.5728 26.3922C67.3496 26.0343 67.5603 25.5907 67.5186 24.7942C67.4549 23.5147 67.5186 22.228 67.4917 20.9437C67.4819 20.4878 67.624 20.2696 68.0405 20.0442C69.621 19.1986 70.4492 17.8628 70.437 16.0393C70.4296 15.1226 70.437 14.2059 70.437 13.2893C70.4321 11.1275 69.1015 9.4216 67.0139 8.89955C66.3204 8.72553 65.6123 8.80641 64.9164 8.82847C64.3798 8.84562 64.1323 8.70102 63.9559 8.14709C63.1644 5.65935 62.2823 3.20102 61.4982 0.71082C61.3046 0.120134 61.0351 -0.00241525 60.4715 3.57268e-05C55.8576 0.0220945 51.2436 0.0122906 46.6321 0.0122906C44.4023 0.0122906 44.3582 3.57628e-05 43.726 2.12749C43.5153 2.83827 43.1968 2.96327 42.5278 2.96082C34.2163 2.93631 25.9073 2.94366 17.5958 2.94611C14.6726 2.94611 12.1414 5.15935 11.7836 8.00249C11.4063 11.0049 13.2783 13.7549 16.1795 14.5123C17.3287 14.8113 18.4902 14.6839 19.6418 14.6569C20.399 14.6397 20.644 14.8211 20.5778 15.5956C20.4039 17.6643 21.2664 19.2084 23.1335 20.1324C23.506 20.3162 23.4962 20.5589 23.4962 20.8652C23.4962 22.2721 23.5329 23.679 23.479 25.0834C23.4545 25.701 23.6481 26.0221 24.2092 26.2525C25.574 26.8138 26.3925 27.853 26.4023 29.3358C26.4121 30.8187 25.6084 31.8824 24.2435 32.4388C23.6285 32.6912 23.479 33.0491 23.4815 33.679C23.506 39.7917 23.4962 45.9044 23.4962 52.0172V73.4633C23.4496 73.4706 23.4031 73.478 23.3565 73.4853C23.0992 72.9118 22.8517 72.3358 22.5847 71.7696C22.0407 70.6054 21.433 69.4853 20.4602 68.6079C19.0611 67.3456 16.9955 67.1005 15.3587 68.0049C13.7218 68.9118 12.9059 70.6692 13.3322 72.5883C13.4499 73.1201 13.2783 73.1986 12.8642 73.2917C11.7077 73.5491 10.5462 73.7991 9.40928 74.125C6.68698 74.9044 3.96222 75.7108 1.72263 77.554C-0.575773 79.4461 -0.563522 81.951 1.72263 83.8481C3.14626 85.0319 4.80513 85.7893 6.53506 86.3922C13.4401 88.7991 20.644 89.554 27.8602 90.2353C31.3544 90.5638 34.8632 90.728 38.3721 90.8628C45.3702 91.1348 52.361 90.9853 59.3444 90.5417C63.8162 90.2574 68.2782 89.8187 72.7109 89.1373C76.798 88.5098 80.8557 87.7329 84.7517 86.2966C86.4131 85.6839 88.0131 84.9412 89.3706 83.7745C91.571 81.8848 91.544 79.3701 89.302 77.527V77.5319ZM46.4459 3.30396C46.5537 2.97307 46.784 2.94121 47.083 2.94121C50.9275 2.94856 54.7721 2.94856 58.6166 2.94121C58.9376 2.94121 59.1263 3.0319 59.2267 3.34317C59.8075 5.12749 60.398 6.90935 61.0155 8.78925H44.6449C45.2575 6.93141 45.8554 5.12013 46.4459 3.30641V3.30396ZM21.0753 11.2059C20.8547 11.6177 20.6416 11.7794 20.1809 11.7598C19.3282 11.7231 18.4706 11.7794 17.6179 11.7427C15.9786 11.6692 14.6946 10.3603 14.6995 8.80886C14.702 7.2917 15.9418 5.90935 17.5345 5.902C25.8019 5.86523 34.0693 5.88484 42.344 5.88484C42.371 6.03925 42.3881 6.07356 42.3783 6.09807C42.0672 6.98288 41.9936 8.17896 41.3688 8.65935C40.7881 9.10788 39.6217 8.81131 38.7127 8.81376C34.1649 8.82111 29.6195 8.82356 25.0717 8.81376C23.2511 8.81131 21.9206 9.62749 21.0753 11.2059V11.2059ZM23.4962 15.4412C23.4962 14.8922 23.4962 14.3407 23.4962 13.7917C23.5011 12.2598 23.9985 11.7525 25.5128 11.7525C32.1728 11.7525 38.8352 11.7525 45.4952 11.7525C52.1551 11.7525 58.7563 11.7525 65.3869 11.7525C67.0237 11.7525 67.4941 12.2304 67.4966 13.8824C67.4966 14.4633 67.4966 15.0442 67.4966 15.625C67.4892 17.0858 66.9698 17.6177 65.5241 17.6201C59.8418 17.6226 54.157 17.6201 48.4747 17.6201C40.8665 17.6201 33.2583 17.6201 25.65 17.6201C23.9495 17.6201 23.4962 17.1618 23.4937 15.4412H23.4962ZM26.4366 78.2868C26.4268 71.1348 26.4292 63.9829 26.4292 56.8309C26.4292 49.679 26.4341 42.5883 26.4194 35.4657C26.4194 34.9388 26.5395 34.5956 26.9879 34.2476C30.2003 31.7476 30.1757 26.9461 26.9536 24.4388C26.5762 24.1446 26.3925 23.8701 26.4194 23.3873C26.4709 22.478 26.118 21.2794 26.5738 20.7304C27.0467 20.1593 28.289 20.5638 29.1932 20.5638C40.6803 20.5515 52.1698 20.5638 63.6569 20.5343C64.4386 20.5343 64.6983 20.7427 64.5684 21.4853C64.5415 21.6324 64.5513 21.7917 64.5684 21.9437C64.6934 23.1937 64.4214 24.125 63.3776 25.0981C60.7312 27.5711 61.0963 31.9486 63.9559 34.201C64.4214 34.5662 64.5807 34.9142 64.5782 35.4878C64.5635 49.7304 64.5684 63.9731 64.5586 78.2182C64.5586 78.5515 64.7694 79.0098 64.2989 79.1888C63.8407 79.3628 63.4584 79.076 63.1546 78.7794C62.5322 78.179 62.1402 77.4142 61.7996 76.6299C61.0008 74.7917 60.2289 72.9412 59.4105 71.1128C59.0626 70.3334 58.575 69.625 57.9942 68.9902C56.1761 67.0025 53.4856 66.9682 51.6283 68.9167C50.7756 69.8113 50.1973 70.8824 49.7122 72.0049C49.0383 73.5638 48.3914 75.1373 47.7225 76.6986C47.4211 77.3995 47.0634 78.076 46.5414 78.6397C45.8161 79.4241 45.1644 79.4314 44.4415 78.6446C43.7309 77.8701 43.3266 76.9093 42.915 75.9584C42.1921 74.2868 41.6065 72.554 40.7489 70.9412C40.3617 70.2108 39.9231 69.5172 39.3473 68.9192C37.4459 66.9461 34.7358 67 32.9201 69.0613C31.8567 70.2696 31.2392 71.7304 30.6217 73.1912C30.0312 74.5907 29.5436 76.0343 28.8183 77.3726C28.512 77.9363 28.2057 78.5025 27.6813 78.8995C27.3897 79.1201 27.0638 79.3505 26.6767 79.1839C26.2552 79.0025 26.4415 78.5956 26.4415 78.2893L26.4366 78.2868ZM87.2143 81.7868C86.1533 82.576 84.9331 83.0491 83.6956 83.4804C79.8045 84.8358 75.7787 85.6054 71.716 86.2353C63.0076 87.5883 54.233 87.951 45.9264 88.054C38.9601 88.0098 32.4913 87.7745 26.0494 87.1054C19.8746 86.4633 13.7292 85.5956 7.79452 83.6495C6.37579 83.1839 4.97175 82.6765 3.76129 81.7745C2.74686 81.0196 2.74196 80.4633 3.75884 79.7133C5.62599 78.3334 7.82392 77.6912 10.0096 77.0564C11.1172 76.7353 12.2615 76.5466 13.3715 76.2329C13.9032 76.0809 14.0918 76.1152 14.2021 76.728C14.5084 78.4314 14.9078 80.1201 15.2729 81.8138C15.3734 82.2819 15.4371 82.6667 16.1403 82.4118C16.8362 82.1593 17.907 82.3358 18.228 81.7917C18.5024 81.326 18.0344 80.4167 17.8825 79.7059C17.3508 77.1765 16.8338 74.6446 16.2628 72.125C16.1109 71.4608 16.2285 70.9731 16.7945 70.6324C17.3949 70.2696 17.9805 70.4044 18.4779 70.853C19.1273 71.4363 19.5144 72.2035 19.8574 72.9853C20.6612 74.8187 21.4281 76.6692 22.2416 78.5C22.5896 79.2794 23.06 79.9951 23.6407 80.6299C25.6133 82.7942 28.4189 82.7353 30.3081 80.4829C31.3004 79.2991 31.9008 77.902 32.4889 76.4951C32.9691 75.3456 33.4445 74.1961 33.9296 73.0491C34.2163 72.3726 34.5667 71.7304 35.0347 71.1643C35.7992 70.2378 36.5294 70.2182 37.3135 71.1201C37.9604 71.8628 38.3476 72.7598 38.7347 73.6544C39.46 75.326 40.0456 77.0564 40.8959 78.674C41.3541 79.5441 41.8785 80.3603 42.6038 81.0319C44.2994 82.5981 46.7056 82.5883 48.3841 81.0049C49.4255 80.0196 50.065 78.7745 50.6286 77.4853C51.371 75.7893 52.0571 74.0662 52.8363 72.3873C53.2308 71.5392 53.689 70.5074 54.7476 70.4902C55.8208 70.4731 56.2349 71.5245 56.6858 72.3505C57.5728 73.9829 58.1168 75.7647 58.8837 77.451C59.3762 78.5343 59.9055 79.5981 60.6822 80.5147C62.5469 82.7108 65.3378 82.7819 67.2908 80.6667C68.4498 79.4118 69.0672 77.8481 69.7239 76.3064C70.4027 74.7157 70.9197 73.0515 71.8826 71.5883C72.1718 71.1495 72.4854 70.7402 72.9951 70.5442C73.5146 70.3432 74.0291 70.3603 74.4579 70.7329C74.8843 71.1005 74.8426 71.5564 74.6564 72.0662C73.4239 75.4608 72.2355 78.8726 70.9809 82.2598C70.7261 82.9461 70.8609 83.1839 71.5421 83.4093C73.5415 84.0736 73.5317 84.1079 74.2472 82.0932C74.8867 80.2917 75.5361 78.4927 76.1462 76.679C76.3177 76.1716 76.4868 75.9559 77.0994 76.0981C79.9418 76.7525 82.7768 77.4167 85.4403 78.6544C86.0774 78.951 86.6924 79.2819 87.2437 79.7157C88.2336 80.4951 88.2361 81.0172 87.2094 81.7819L87.2143 81.7868Z" fill="#D6A354"/>
<path d="M10.2595 29.3553C12.7393 29.3627 14.6922 27.4411 14.6971 24.9901C14.7044 22.5097 12.7858 20.5588 10.3355 20.5514C7.85333 20.5441 5.90532 22.4607 5.89797 24.9142C5.89062 27.3946 7.80922 29.348 10.2595 29.3553V29.3553ZM10.2865 23.495C11.0363 23.4877 11.764 24.2156 11.7567 24.9656C11.7493 25.7181 11.0093 26.4362 10.2644 26.4142C9.50729 26.3921 8.80405 25.6421 8.84081 24.897C8.87756 24.174 9.56855 23.5024 10.2865 23.495Z" fill="#D6A354"/>
<path d="M76.2539 29.3554C78.7361 29.3628 80.6914 27.4461 80.6988 24.9976C80.7061 22.5148 78.7924 20.5613 76.3446 20.554C73.8599 20.5466 71.9095 22.4584 71.8997 24.9094C71.8923 27.3922 73.806 29.3481 76.2539 29.3554ZM76.276 23.4952C77.0233 23.4804 77.7559 24.2035 77.7559 24.9559C77.7559 25.7059 77.0209 26.429 76.2735 26.4143C75.5188 26.3971 74.8107 25.6545 74.8401 24.9069C74.8695 24.1863 75.558 23.5074 76.276 23.4952V23.4952Z" fill="#D6A354"/>
<path d="M4.41292 42.5612C6.88285 42.5637 8.82595 40.6348 8.8284 38.174C8.83085 35.701 6.9049 33.7598 4.44478 33.7573C1.9724 33.7549 0.0317495 35.6813 0.0292992 38.1421C0.0268489 40.6152 1.95525 42.5563 4.41292 42.5612ZM4.42272 36.701C5.17252 36.6985 5.89782 37.4289 5.88557 38.1789C5.87331 38.9338 5.13087 39.647 4.38597 39.6201C3.62882 39.5931 2.92803 38.8407 2.96968 38.098C3.00889 37.375 3.70723 36.7059 4.42272 36.7034V36.701Z" fill="#D6A354"/>
<path d="M77.7659 38.1348C77.761 40.6103 79.6845 42.5563 82.1397 42.5612C84.6121 42.5661 86.5601 40.6397 86.565 38.1838C86.5699 35.7083 84.6464 33.7647 82.1887 33.7598C79.7139 33.7549 77.7683 35.6789 77.7659 38.1348ZM82.1985 36.701C82.9532 36.723 83.6589 37.473 83.6246 38.2157C83.5878 38.973 82.8233 39.6691 82.0882 39.6176C81.3654 39.5686 80.7038 38.8627 80.7087 38.1495C80.7161 37.3946 81.4512 36.6789 82.1985 36.701Z" fill="#D6A354"/>
<path d="M4.43021 55.7132C4.42041 58.2034 6.32921 60.1593 8.77463 60.1691C11.2593 60.1789 13.2195 58.2646 13.2293 55.821C13.2391 53.3333 11.3279 51.3774 8.88245 51.3676C6.39292 51.3578 4.44001 53.2671 4.43021 55.7132V55.7132ZM10.2865 55.7818C10.2767 56.5245 9.55138 57.2352 8.81384 57.2254C8.06894 57.2156 7.3608 56.4926 7.3706 55.7499C7.3804 55.0024 8.10079 54.2965 8.84324 54.3063C9.58814 54.3161 10.2963 55.0392 10.2865 55.7794V55.7818Z" fill="#D6A354"/>
<path d="M77.7707 51.3652C75.3007 51.3652 73.3674 53.2942 73.3674 55.7598C73.3674 58.228 75.2983 60.1667 77.7609 60.1667C80.2283 60.1667 82.1641 58.2329 82.1665 55.7696C82.1665 53.2991 80.2381 51.3652 77.7707 51.3652ZM77.7952 57.2255C77.0576 57.2451 76.3274 56.5417 76.3078 55.7966C76.2882 55.0564 76.989 54.3285 77.7363 54.3089C78.4739 54.2893 79.2041 54.9927 79.2237 55.7378C79.2433 56.4755 78.5401 57.2084 77.7952 57.2255Z" fill="#D6A354"/>
<path d="M45.4632 64.571C52.7333 64.8946 58.0921 57.3333 54.7768 50.2475C52.8215 46.0661 50.9396 41.848 49.0284 37.6446C48.3349 36.1201 47.2029 35.2279 45.4852 35.2328C43.8092 35.2377 42.6747 36.098 41.996 37.5882C40.0038 41.9534 38.0166 46.321 36.0368 50.6936C35.2747 52.375 35.0297 54.1568 35.2943 55.9657C36.1201 61.6054 40.9644 64.8063 45.4632 64.5735V64.571ZM38.8571 51.7083C40.7684 47.4755 42.6869 43.2475 44.5982 39.0147C44.7795 38.6127 44.9878 38.2353 45.4999 38.2377C46.0145 38.2377 46.2179 38.6225 46.3992 39.022C48.3006 43.223 50.2364 47.4093 52.0962 51.6274C54.2892 56.5956 50.9421 61.6372 45.495 61.6372C41.577 61.6372 38.688 59.1225 38.2053 55.2549C38.0509 54.0171 38.3474 52.8358 38.8547 51.7083H38.8571Z" fill="#D6A354"/>
</g>
<defs>
<clipPath id="clip0_354_32">
<rect width="91" height="91" fill="white"/>
</clipPath>
</defs>
</svg>
