<svg width="57" height="75" viewBox="0 0 57 75" fill="none" xmlns="http://www.w3.org/2000/svg">
<g clip-path="url(#clip0_110_2557)">
<path d="M52.3003 26.5619C51.7026 26.1037 51.4373 25.7425 51.5884 24.9465C51.8302 23.6923 51.8335 22.4147 51.4071 21.1605C49.5402 15.6722 42.5998 14.1873 38.5773 18.4983C37.5431 19.6054 36.3813 19.204 35.3371 19.087C34.3566 18.9766 34.9207 17.883 34.9039 17.2609C34.8368 14.5886 34.8469 11.9164 34.8871 9.24415C34.9039 7.97325 34.3533 7.41807 33.0874 7.4281C29.9043 7.44817 26.7178 7.45486 23.5347 7.42476C22.1413 7.41138 21.6846 8.08028 21.7081 9.38797C21.7585 12.0602 21.6275 14.7391 21.7618 17.4047C21.8357 18.883 21.4227 19.2408 19.9487 19.2107C15.2076 19.1171 12.0815 22.2642 12.0681 26.9766C12.048 31.9331 11.9842 36.8896 12.1017 41.8428C12.1453 43.6656 11.9304 44.9933 9.9796 45.699C9.36849 45.9231 8.8917 46.0736 8.30746 45.8796C7.44116 45.5853 6.57487 45.5117 5.67501 45.7057C2.47174 46.4013 0.326163 48.8328 0.292585 51.8261C0.252293 54.9666 2.26692 57.5151 5.52391 58.2308C6.28275 58.3947 6.45064 58.5117 6.454 59.3211C6.47078 62.4883 7.56876 65.3077 10.2482 67.0903C11.7693 68.1037 12.2863 69.1873 12.0748 70.8629C11.9909 71.5184 12.1117 72.2007 12.048 72.8629C11.964 73.7893 12.3132 74.4682 13.0385 75H43.5601C44.4801 74.408 44.554 73.5217 44.5507 72.5318C44.5271 63.7324 44.5641 54.9331 44.507 46.1371C44.4969 44.8829 44.7857 44.6087 46.0516 44.6388C50.6415 44.7492 54.1974 42.1672 55.6748 37.8495C57.1589 33.5284 55.9333 29.3445 52.3003 26.5619ZM24.5051 11.4013C24.5353 10.5017 24.8476 10.2676 25.6836 10.2876C27.4632 10.3345 29.2495 10.3545 31.0258 10.2843C32.1909 10.2375 32.117 10.9432 32.0532 11.6823C31.9928 12.3579 32.4595 13.3579 31.0795 13.2809C30.136 13.2308 29.1891 13.2709 28.2422 13.2709C27.574 13.2709 26.8891 13.1739 26.2444 13.291C24.579 13.5953 24.4614 12.699 24.5051 11.4013ZM24.5051 17.3679C24.5588 16.4348 24.7905 16.1238 25.7441 16.1605C27.517 16.2341 29.2965 16.2341 31.0728 16.1672C32.4595 16.1137 32.0163 17.0836 32.0364 17.7525C32.0599 18.3947 32.3655 19.2809 31.1064 19.1873C30.1662 19.1171 29.2193 19.1739 28.2758 19.1739C27.6076 19.1739 26.926 19.0769 26.2813 19.1906C24.7065 19.4716 24.4279 18.7425 24.5051 17.3679ZM11.6249 64.5318C9.60353 62.7391 8.91184 60.398 9.65054 57.7258C10.2549 55.5452 9.70762 54.9498 7.3908 55.3044C5.71194 55.5619 4.39236 55.0134 3.61337 53.5084C2.9116 52.1505 3.09964 50.806 4.1506 49.6622C5.24858 48.4682 6.87371 48.184 8.41826 49.0803C9.51623 49.7191 10.2314 49.5184 11.0171 48.6355C12.2595 47.2442 13.8208 46.8562 15.5534 47.612C17.2457 48.3512 18.1657 49.6722 18.0314 51.5518C17.9508 52.6689 18.4578 53.2007 19.3946 53.7358C21.5671 54.9766 22.7389 56.9197 22.8094 59.4883C22.6953 62.2442 21.5604 64.4248 18.9514 65.5819C16.3324 66.7458 13.7637 66.4248 11.6249 64.5318ZM34.1921 61.9933C34.1921 62.9733 34.0242 63.3478 32.933 63.311C30.3677 63.2174 27.799 63.2809 25.0457 63.2809C26.4223 59.1806 25.7071 55.7224 22.8867 52.7458C22.4905 52.3278 22.4233 51.9064 22.4233 51.3947C22.43 44.9331 22.4502 38.4716 22.4032 32.0134C22.3964 31.0067 22.7557 30.8529 23.6421 30.8662C26.7715 30.9164 29.9043 30.9298 33.0303 30.8595C34.0376 30.8361 34.1921 31.1973 34.1887 32.087C34.1585 42.0569 34.1585 52.0268 34.1921 61.9933ZM40.1319 72.0803C32.2513 72.0201 24.3708 72.0401 16.4936 72.0602C15.5702 72.0636 14.8483 72.097 15.0262 70.8027C15.1471 69.9197 14.7476 68.9933 16.3626 69.0836C18.6022 69.2141 20.637 68.3411 22.3192 66.8662C22.974 66.291 23.6254 66.1405 24.4379 66.1438C27.9568 66.1672 31.4791 66.1238 34.9979 66.1706C36.566 66.1906 37.1872 65.5485 37.1838 63.9733C37.1502 52.7224 37.167 41.4716 37.1603 30.2241C37.1603 28.4047 36.7339 27.9799 34.8771 27.9766C30.5188 27.9632 26.1604 27.9632 21.8021 27.9733C19.8345 27.9799 19.4383 28.3746 19.4349 30.3077C19.4282 35.6957 19.4349 41.087 19.4349 46.786C18.3504 45.8294 17.511 45.0502 16.413 44.8161C15.2915 44.5786 14.9994 44.0535 15.0162 42.9197C15.0934 37.5719 15.0464 32.2241 15.0531 26.8796C15.0531 23.8462 16.7454 22.1338 19.811 22.1204C25.5124 22.097 31.2104 22.0937 36.9118 22.1238C39.8498 22.1371 41.5455 23.8863 41.5455 26.8361C41.5522 41.4281 41.5354 56.0201 41.5757 70.612C41.5791 71.7592 41.3306 72.0903 40.1319 72.0803ZM53.0087 36.6488C52.0249 39.8462 49.2817 41.903 46.0717 41.8696C45.0543 41.8562 44.4365 41.6522 44.5036 40.3646C44.6212 38.0368 44.5372 35.699 44.5372 33.3646C44.5372 31.2542 44.5171 29.1438 44.5406 27.0301C44.5708 24.5619 43.7784 22.4348 41.8141 20.8863C40.9075 20.1672 41.1627 19.8696 41.9921 19.4248C43.6877 18.5184 45.5882 18.6856 47.1227 19.9432C48.6639 21.2074 49.2078 22.9933 48.6135 24.8495C48.1255 26.3835 48.6012 27.6098 50.0405 28.5284C52.8073 30.2977 53.9758 33.495 53.0087 36.6488Z" fill="#D6A454"/>
<path d="M51.5378 4.02007C50.92 1.9097 49.2714 0.90301 47.4817 0H44.4631C44.4094 0.394649 44.0602 0.284281 43.8252 0.377926C40.7696 1.61538 39.3158 4.86957 40.4507 7.91639C41.5386 10.8462 44.8123 12.3846 47.8343 11.388C50.8797 10.3846 52.4612 7.1806 51.5378 4.02007ZM45.9674 8.72575C44.255 8.73579 43.0025 7.49833 43.0126 5.81271C43.0227 4.23746 44.2684 2.97659 45.8633 2.93645C47.5657 2.88963 48.8584 4.11371 48.8752 5.78595C48.892 7.51505 47.7033 8.71572 45.9674 8.72575Z" fill="#D6A454"/>
</g>
<defs>
<clipPath id="clip0_110_2557">
<rect width="56" height="75" fill="white" transform="translate(0.29248)"/>
</clipPath>
</defs>
</svg>
