<svg width="89" height="89" viewBox="0 0 89 89" fill="none" xmlns="http://www.w3.org/2000/svg">
<g clip-path="url(#clip0_355_42)">
<path d="M8.93268 58.7941C7.02214 58.7941 5.11159 58.8174 3.20104 58.7816C2.51281 58.7691 2.38018 58.9535 2.62572 59.5929C4.12585 63.526 6.06686 67.1941 8.55631 70.6167C11.5709 74.7648 15.1662 78.2591 19.378 81.1408C25.658 85.4375 32.5995 87.902 40.1664 88.7008C41.8619 88.8799 43.5502 89.0572 45.2474 88.9784C49.8876 88.7635 54.4579 88.056 58.8399 86.4907C71.0524 82.1259 79.8273 73.9946 85.1808 62.1899C85.5858 61.2962 85.8869 60.3541 86.2687 59.4496C86.4515 59.0162 86.4622 58.7906 85.8905 58.7923C81.9798 58.8031 78.0691 58.7762 74.1584 58.8156C72.8715 58.8282 72.35 60.0013 73.0131 61.2174C73.3536 61.8443 73.7497 62.446 74.0419 63.0944C75.7123 66.8036 74.0168 71.5015 70.4609 73.0705C67.0323 74.5821 63.1754 72.954 61.7237 69.329C60.6214 66.5744 60.9458 63.9434 62.6807 61.529C63.1431 60.8843 63.3277 60.2449 63.0105 59.532C62.6897 58.8067 61.9979 58.7941 61.3258 58.7941C58.4904 58.7959 55.6533 58.7834 52.8179 58.8013C50.9791 58.812 50.2604 59.9655 51.126 61.5899C51.8376 62.9278 52.7301 64.1619 53.2409 65.6144C55.1246 70.9732 52.2104 77.1898 46.9967 78.8859C43.7778 79.9337 39.9925 78.6567 37.7522 75.7695C34.8864 72.0782 34.6122 67.298 37.0335 63.2878C37.4027 62.6753 37.8185 62.086 38.134 61.4466C38.8401 60.0174 38.1322 58.8228 36.5496 58.8067C33.5637 58.7762 30.5796 58.7834 27.5937 58.7995C25.9789 58.8085 25.3587 59.9404 26.2423 61.3338C27.2585 62.9404 27.902 64.6419 27.8034 66.5583C27.5758 71.0126 23.8317 74.557 19.3744 73.4322C16.1089 72.6084 13.856 69.0156 14.2808 65.3636C14.4349 64.0383 14.9869 62.8992 15.6931 61.8013C15.9117 61.4628 16.1465 61.1225 16.2272 60.7016C16.4602 59.4873 15.9386 58.8156 14.6643 58.8013C12.7538 58.7798 10.8432 58.7959 8.93268 58.7959V58.7923V58.7941Z" fill="#D6A354"/>
<path d="M0.00150974 45.2631C-0.0343354 48.2058 0.497965 51.795 1.30627 55.3556C1.49446 56.183 1.81707 56.5448 2.72575 56.4714C3.88175 56.3782 5.05389 56.4105 6.21706 56.4642C6.91604 56.4965 6.99491 56.2654 6.83181 55.6529C5.66147 51.2702 5.15067 46.8159 5.398 42.2792C5.80306 34.8196 8.21006 28.0549 12.4954 21.9528C15.7447 17.3248 19.8221 13.5564 24.7168 10.7427C33.5687 5.65441 43.0354 4.1571 53.0147 6.37977C62.1571 8.41439 69.5806 13.2466 75.3337 20.5988C80.128 26.7259 82.7842 33.7181 83.415 41.4733C83.8058 46.2822 83.2717 50.9998 81.9597 55.6332C81.7948 56.2135 81.7769 56.4929 82.5225 56.4642C83.8649 56.4141 85.2091 56.4374 86.5515 56.4571C87.039 56.4642 87.2702 56.3317 87.4028 55.8069C87.9584 53.6057 88.2703 51.3651 88.6359 49.1299C89.0642 46.5114 89.0911 43.8768 88.8366 41.287C88.014 32.8924 85.3829 25.114 80.3019 18.2794C74.0505 9.87229 65.8742 4.21262 55.7372 1.53861C46.4909 -0.900774 37.3002 -0.47809 28.4124 3.08606C14.7321 8.572 5.79409 18.4764 1.61634 32.6238C0.469291 36.5103 -0.00924381 40.4989 0.00150974 45.2631V45.2631Z" fill="#D6A354"/>
<path d="M38.6912 12.6555C39.0425 15.8883 39.4045 18.9653 39.7092 22.0477C40.8957 34.0494 41.6592 46.0708 41.4746 58.1406C41.4388 60.5262 40.9405 62.654 39.4547 64.6474C37.0567 67.8641 37.7808 72.5888 40.8903 75.1339C43.6755 77.4139 47.1561 76.8676 49.2996 74.0969C51.488 71.2689 51.7174 67.6617 49.7136 64.6671C48.3623 62.6486 47.7672 60.4976 47.5611 58.1424C46.9177 50.8027 46.1237 43.4828 44.8853 36.213C43.5769 28.5241 41.7883 20.9623 39.211 13.594C39.1142 13.3182 39.0658 13.0173 38.6912 12.6555V12.6555Z" fill="#D6A354"/>
<path d="M17.7685 29.4214C17.9836 32.1814 18.2076 34.9431 18.4137 37.7049C18.9586 45.0249 19.2041 52.3538 19.0607 59.6934C19.0356 60.9973 18.6575 62.1668 17.876 63.2719C16.5892 65.0934 16.5605 67.0814 17.6932 68.9996C19.1987 71.5518 22.6219 71.5895 24.2063 69.0838C25.3802 67.2265 25.4197 65.2385 24.2493 63.4206C23.26 61.8856 22.9678 60.2469 22.8406 58.5131C22.2599 50.6003 21.5107 42.7091 19.6091 34.979C19.1432 33.0858 18.6897 31.182 17.7667 29.4214H17.7685Z" fill="#D6A354"/>
<path d="M64.5966 28.927C64.8637 32.3747 65.1558 35.8207 65.3906 39.2702C65.8494 45.9973 66.077 52.7316 65.9408 59.4766C65.9122 60.9077 65.5179 62.1793 64.6719 63.3954C63.4424 65.1632 63.4747 67.1261 64.55 68.9709C65.2974 70.2551 66.4785 71.0181 68.0378 70.916C69.606 70.8139 70.7064 69.956 71.375 68.5679C72.2621 66.7232 72.1187 64.8874 71.0165 63.2002C70.2673 62.0557 69.9035 60.8414 69.8014 59.5143C69.2816 52.7639 68.7368 46.017 67.4338 39.3598C66.742 35.8243 65.9355 32.3156 64.5984 28.927H64.5966Z" fill="#D6A354"/>
</g>
<defs>
<clipPath id="clip0_355_42">
<rect width="89" height="89" fill="white" transform="matrix(-1 0 0 1 89 0)"/>
</clipPath>
</defs>
</svg>
