<svg width="94" height="100" viewBox="0 0 94 100" fill="none" xmlns="http://www.w3.org/2000/svg">
<g clip-path="url(#clip0_354_41)">
<path d="M26.7349 48.7072C28.1815 47.2676 29.6282 45.8281 31.0677 44.3886C33.3165 42.1398 35.551 39.8695 37.8284 37.6494C38.3369 37.1552 38.2868 36.8759 37.7926 36.4462C37.3629 36.0667 37.1266 35.7014 36.5107 36.3245C32.2709 40.6287 27.9882 44.8828 23.7126 49.1512C23.5049 49.3589 23.3044 49.5737 23.0752 49.7528C22.6598 50.0679 22.223 50.0822 21.8649 49.674C21.5426 49.3159 21.5569 48.9077 21.8577 48.5281C22.0368 48.2989 22.2516 48.0984 22.4593 47.8907C26.7062 43.6438 30.946 39.3825 35.2072 35.1571C35.6942 34.6773 35.8446 34.398 35.243 33.8823C34.7489 33.4526 34.4982 33.2091 33.8895 33.825C29.6712 38.1078 25.4099 42.3404 21.163 46.5801C20.9338 46.8093 20.6975 47.0385 20.4468 47.239C20.0959 47.5255 19.7235 47.4968 19.3869 47.2032C19.0145 46.8809 18.9644 46.4655 19.2222 46.0716C19.3941 45.7995 19.6447 45.5846 19.8739 45.3555C24.1423 41.0799 28.3964 36.7972 32.7006 32.5574C33.2879 31.9773 33.0874 31.7338 32.6362 31.2898C32.1921 30.8529 31.9558 30.6309 31.3757 31.2181C27.1144 35.5438 22.8102 39.8266 18.5132 44.1165C18.284 44.3456 18.0477 44.5677 17.7827 44.7539C17.4389 45.0045 17.088 44.8899 16.8087 44.6321C16.5294 44.3743 16.4148 44.0592 16.5795 43.6653C16.7299 43.3215 17.0092 43.0995 17.2599 42.8488C21.5498 38.5518 25.8325 34.2404 30.1582 29.9863C30.7669 29.3847 30.4876 29.1627 30.0794 28.7258C29.6354 28.2603 29.3919 28.0956 28.8189 28.6685C24.5577 32.9943 20.2463 37.277 15.9493 41.5669C15.7201 41.7961 15.4837 42.0181 15.2188 42.2043C14.8678 42.4621 14.5241 42.326 14.2519 42.0682C13.9869 41.8104 13.8365 41.5024 14.0227 41.1085C14.1803 40.7719 14.4596 40.5499 14.7103 40.2993C19.0002 36.0022 23.2757 31.6908 27.6086 27.4367C28.2245 26.8351 27.9237 26.6131 27.5227 26.1834C27.093 25.7322 26.8495 25.5317 26.2694 26.119C22.0296 30.4232 17.7469 34.6773 13.4713 38.9457C13.2421 39.1749 13.0201 39.4184 12.7551 39.6046C12.3541 39.891 11.9458 39.8194 11.6236 39.4613C11.3371 39.1462 11.2583 38.7666 11.5448 38.4014C11.7238 38.1722 11.9315 37.9645 12.1392 37.7568C16.4291 33.4598 20.7118 29.1484 25.0375 24.8943C25.632 24.3142 25.4099 24.0779 24.9659 23.641C24.529 23.2113 24.2927 22.9678 23.7054 23.5694C19.4657 27.8736 15.1829 32.1277 10.9074 36.3961C10.6997 36.6038 10.4992 36.8186 10.27 36.9977C9.84743 37.3128 9.41773 37.2913 9.05964 36.8974C8.72304 36.5322 8.74452 36.1311 9.05964 35.7587C9.24585 35.5367 9.4607 35.3362 9.66839 35.1285C13.8723 30.9245 18.0691 26.7206 22.2803 22.5309C22.7529 22.0582 23.1898 21.7646 22.4235 21.0556C21.736 20.4182 21.4781 20.719 21.0055 21.1917C16.8158 25.4028 12.6119 29.5996 8.40792 33.8035C8.17874 34.0327 7.95673 34.2834 7.69891 34.4696C7.31217 34.7489 6.89679 34.7346 6.55302 34.3908C6.20926 34.047 6.17345 33.646 6.48141 33.2592C6.66045 33.0301 6.86814 32.8224 7.07583 32.6147C11.3228 28.3678 15.5625 24.1137 19.8309 19.8811C20.3251 19.3869 20.497 19.1004 19.8882 18.5275C19.3439 18.019 19.0789 17.9904 18.5347 18.5347C14.3092 22.8102 10.0551 27.0428 5.8082 31.2898C5.60051 31.4974 5.39998 31.7123 5.1708 31.8842C4.79123 32.1707 4.38301 32.1707 4.02492 31.8412C3.65967 31.5046 3.64535 31.0964 3.93182 30.7097C4.1037 30.4733 4.31139 30.2656 4.51908 30.0651C8.76601 25.8182 13.0129 21.5712 17.2599 17.3172C17.9617 16.6153 17.9331 16.4363 16.9877 16.157C15.8848 15.8347 14.9753 16.1999 14.1731 17.002C10.7427 20.4612 7.29068 23.8917 3.84588 27.3365C3.31591 27.8664 2.77161 28.3749 2.03395 28.6041C1.46101 28.7831 0.888069 28.8548 0.386746 28.4179C-0.128901 27.9667 -0.0501216 27.3579 0.0716283 26.785C0.229187 26.0688 0.709025 25.5245 1.21751 25.0161C6.33817 19.8954 11.4517 14.7676 16.5795 9.65407C17.9689 8.27185 19.4585 8.26469 20.8336 9.63975C29.7715 18.5705 38.695 27.5012 47.6401 36.4247C48.0554 36.8401 48.0769 37.0693 47.7546 37.5849C46.6231 39.3897 44.7395 40.1703 43.0565 41.2374C42.9563 41.3019 42.7557 41.3735 42.7199 41.3305C42.0467 40.5642 41.7173 41.3019 41.3807 41.6672C39.977 43.1783 37.9215 43.4576 36.1526 44.3456C37.5348 42.9706 38.8884 41.574 40.3064 40.242C40.8221 39.755 40.8937 39.4828 40.3351 38.96C39.8194 38.4802 39.5473 38.3513 38.9815 38.9385C36.5895 41.4093 34.1258 43.8228 31.698 46.2578C30.3301 47.6257 28.4394 47.9552 26.8566 48.9005C26.8137 48.8361 26.7707 48.7645 26.7277 48.7L26.7349 48.7072Z" fill="#D6A354"/>
<path d="M48.0054 58.7551C49.9247 54.6657 51.5433 50.6193 54.0141 47.0098C54.5297 46.2578 55.3963 45.8496 56.091 45.2695C56.2414 45.1406 56.3631 45.162 56.4921 45.291C56.6496 45.4557 56.8143 45.6132 56.9719 45.7708C68.8891 57.688 80.8062 69.598 92.7234 81.5152C93.8979 82.6897 93.9839 83.4846 92.9598 84.7952C91.1049 87.1658 88.5553 88.5695 85.8481 89.701C84.115 90.4244 82.3102 90.8756 80.398 90.9114C78.006 90.9615 76.2227 90.0018 74.9408 88.0037C73.1933 85.2751 71.8326 82.3459 70.4145 79.4454C68.2517 75.0051 66.1748 70.5147 63.4103 66.3967C61.5912 63.6895 59.5072 61.2545 56.9146 59.2277C54.5369 57.3657 52.1019 57.0864 49.4019 58.2323C49.0009 58.4041 48.5783 58.5402 48.0054 58.7551V58.7551Z" fill="#D6A354"/>
<path d="M41.4023 51.8654C38.7381 54.5224 36.0811 57.1723 33.4169 59.8222C33.023 60.2089 32.5503 60.302 32.1206 59.9081C31.6264 59.4569 31.7697 58.9627 32.1851 58.5474C34.1474 56.5636 36.0739 54.5368 38.1222 52.6389C38.9601 51.8654 40.242 52.0087 41.4023 51.8583V51.8654Z" fill="#D6A354"/>
<path d="M40.285 56.6638C39.934 58.8696 39.5759 61.0611 38.8454 63.1595C38.5303 64.0691 37.2412 64.4558 36.2386 64.0404C35.3505 63.668 35.1285 62.9518 35.5367 61.8561C35.7229 61.3548 36.038 60.9394 36.389 60.5741C37.6709 59.2564 38.9815 57.9601 40.285 56.6638Z" fill="#D6A354"/>
<path d="M34.7919 53.391C33.4455 54.7302 32.1492 56.0337 30.8243 57.3156C30.4232 57.7024 29.9362 57.7382 29.5351 57.3156C29.1269 56.8859 29.263 56.4491 29.6068 56.0194C30.8887 54.3936 32.5144 53.4125 34.7919 53.3981V53.391Z" fill="#D6A354"/>
<path d="M93.0956 13.2493C92.6516 12.6549 92.3651 13.2851 92.1073 13.4427C82.0522 19.5158 72.0186 25.6177 61.9778 31.7052C61.7558 31.8412 61.5767 32.1564 61.19 31.9487C67.5854 21.4137 73.9737 10.9002 80.3262 0.444075C79.6315 -0.26494 79.2376 -0.0500869 78.7363 0.601634C69.0966 12.9915 59.3709 25.3169 49.8099 37.764C47.8906 40.2635 45.5272 41.968 42.8129 43.2714C36.267 46.4154 29.6496 49.4162 23.0822 52.5244C22.2658 52.9111 21.8361 52.8109 21.2059 52.1806C17.8828 48.8862 13.8579 47.7475 9.35315 48.9077C3.17971 50.4976 -0.637513 56.5063 0.486884 62.8373C1.40359 67.9795 4.52612 71.3455 9.568 72.6203C14.4452 73.8521 18.7207 72.4699 21.9578 68.5882C24.9944 64.9429 25.6032 60.7604 23.9918 56.2843C23.8844 55.9835 23.5406 55.6613 24.0849 55.4106C26.0186 54.5225 27.8735 53.3552 29.9002 52.7751C34.3334 51.5074 38.8524 50.5406 43.3357 49.4377C43.923 49.2945 44.0018 49.4878 43.8657 50.0106C43.2856 52.3239 42.684 54.6371 42.1683 56.9719C41.266 61.0827 40.1416 65.1076 38.1005 68.8246C37.814 69.3546 37.6636 69.6553 36.9761 69.3259C36.1954 68.9463 35.3289 68.7888 34.4623 68.6384C28.2244 67.5784 21.3276 71.7251 20.3823 79.159C19.6016 85.268 22.9963 90.4316 28.8045 92.4369C29.2342 92.5873 29.3989 92.7449 29.2987 93.1817C28.7758 95.3446 28.2602 97.5074 27.7446 99.6703H28.5252C29.2843 99.2764 30.1437 99.2621 30.953 99.1403C31.6477 99.0401 31.7838 98.7464 31.8339 98.1448C31.9628 96.691 32.1777 95.2515 32.3066 93.7977C32.3567 93.2104 32.5644 93.0242 33.1803 92.9884C36.045 92.8165 38.6304 91.8425 40.736 89.8658C46.1288 84.7953 46.1861 77.0391 40.8864 71.854C40.4495 71.4243 40.3493 71.1092 40.6214 70.5362C43.7869 63.8185 46.8521 57.0578 50.0964 50.3759C51.0847 48.3491 52.0659 46.2435 53.9638 44.7611C66.9122 34.6773 79.8392 24.5649 92.7877 14.474C93.2747 14.0944 93.4895 13.7793 93.0885 13.2421L93.0956 13.2493ZM12.4255 69.8559C7.31921 69.7986 3.36591 65.6877 3.40888 60.7461C3.45185 55.4965 7.46244 51.6793 12.3396 51.6364C17.9544 51.5791 21.6141 55.8331 21.6571 60.6458C21.7072 65.8811 17.5032 69.9347 12.4184 69.8559H12.4255ZM41.6742 80.9208C41.71 85.7478 37.5275 89.9375 32.4427 89.8873C27.5727 89.8444 23.4833 85.9985 23.4332 80.842C23.3401 75.8001 27.4079 71.6105 32.5859 71.6248C37.37 71.6392 41.624 75.3633 41.6742 80.9208ZM50.2253 45.3054C49.0078 45.2982 48.0195 44.3242 47.9909 43.1067C47.9622 41.8319 48.9505 40.8078 50.211 40.7934C51.4715 40.7791 52.4956 41.7818 52.5028 43.0422C52.5028 44.2884 51.4715 45.3197 50.2253 45.3125V45.3054Z" fill="#D6A354"/>
</g>
<defs>
<clipPath id="clip0_354_41">
<rect width="93.6687" height="99.6631" fill="white"/>
</clipPath>
</defs>
</svg>
