<svg width="44" height="49" viewBox="0 0 44 49" fill="none" xmlns="http://www.w3.org/2000/svg">
<g clip-path="url(#clip0_110_2538)">
<path d="M4.1475 41.6282C4.09888 43.6728 5.46635 45.24 7.34317 45.2923C9.41656 45.349 11.3124 43.4505 11.3547 41.2773C11.3948 39.2741 9.91746 37.7789 7.88846 37.7701C5.8489 37.7592 4.19822 39.4616 4.1475 41.6282ZM9.4546 41.31C9.40176 42.4042 8.40628 43.3786 7.38967 43.3328C6.52734 43.2957 6.00107 42.6353 6.04334 41.6457C6.08773 40.5689 6.93103 39.673 7.89058 39.6839C8.81631 39.6948 9.5011 40.4054 9.4546 41.31Z" fill="#D6A454"/>
<path d="M21.2713 19.0311C16.9787 12.9758 12.6206 6.97073 8.34914 0.902401C8.07015 0.505691 7.7193 0.231048 7.31984 -3.07197e-07L6.47443 -2.70243e-07C6.1891 0.204891 5.84036 0.320415 5.63535 0.640835C4.58492 2.29306 3.96565 4.06953 4.18969 6.07705C4.47924 8.68616 5.6903 10.8659 7.15076 12.954C10.2365 17.3636 13.316 21.7819 16.3891 26.2024C16.7949 26.7865 16.8202 27.2661 16.4503 27.8829C15.1759 30.0103 13.9289 32.1573 12.7115 34.3218C12.3015 35.0542 11.9591 35.2089 11.2405 34.7403C9.47566 33.5872 7.54177 33.3605 5.56561 33.9992C2.15435 35.1021 0.16128 38.1799 0.29866 42.0075C0.427586 45.6454 2.47772 48.1368 6.05172 49L9.00857 49C11.9316 48.4158 13.5696 46.3974 14.6412 43.7033C15.1082 42.5306 15.5732 41.3579 16.0424 40.1852C17.1943 37.308 18.9591 34.919 21.3538 33.0161C21.7913 32.6674 22.0956 32.65 22.5458 33.0009C24.4903 34.5114 26.0183 36.3751 27.1174 38.6071C27.9607 40.3226 28.5757 42.1383 29.3134 43.9016C30.4082 46.5217 32.0842 48.4921 34.9798 49L37.7253 49C37.7675 48.83 37.9007 48.8125 38.0402 48.7755C42.2863 47.6529 43.8566 43.9256 43.1148 39.6643C42.3053 35.0106 36.2162 31.7018 31.6996 35.7364C30.1884 33.1317 28.7025 30.5182 27.1554 27.9461C26.7496 27.2726 26.7306 26.8105 27.2019 26.1435C30.5434 21.3983 33.8342 16.6138 37.1504 11.8489C38.0169 10.6043 38.7228 9.27904 39.0969 7.79248C39.8325 4.87384 39.471 2.21241 37.3025 -1.61778e-06L36.6706 -1.59016e-06C36.1295 0.150397 35.8188 0.555827 35.4976 1.00267C31.205 7.01214 26.8934 13.0064 22.6155 19.0267C21.9878 19.9117 21.8864 19.9008 21.2713 19.0311ZM12.7728 42.6069C12.6016 43.0777 12.3923 43.5398 12.1599 43.9823C10.7987 46.598 8.2181 47.6682 5.67974 46.683C3.2238 45.7304 1.96836 43.1649 2.55804 40.3095C3.24282 37.0028 6.45329 35.0346 9.31503 36.1702C9.87723 36.3925 10.3612 36.7326 10.8072 37.162C11.8999 38.2148 12.8383 38.1232 13.7196 36.8851C14.0092 36.4797 14.2396 36.0285 14.489 35.5926C15.1315 34.4722 15.7613 33.3475 16.406 32.2293C17.0506 31.1111 17.7079 29.9994 18.4392 28.7461C18.9655 29.4872 19.422 30.1673 19.9229 30.8125C20.1385 31.0915 20.0772 31.2266 19.8362 31.4097C16.1206 34.2281 14.3305 38.339 12.7728 42.6069ZM36.8207 2.90338C36.8376 2.8794 36.882 2.87722 37.0024 2.83581C37.7548 4.36161 37.683 5.93972 37.2096 7.50694C36.9644 8.32215 36.641 9.15916 36.1676 9.85231C32.657 14.9943 29.0978 20.1013 25.4815 25.3283C24.7418 24.2995 24.1077 23.3883 23.4441 22.5034C23.1947 22.1721 23.1587 21.9388 23.4229 21.5726C27.8994 15.3561 32.3569 9.12647 36.8207 2.90338ZM24.2282 26.8977C26.2656 29.7945 27.8783 32.9769 29.6621 36.0416C29.8798 36.4121 30.0721 36.8067 30.3405 37.1336C31.1141 38.0753 32.0504 38.1712 32.9043 37.3276C34.5845 35.671 36.4466 35.4356 38.5009 36.4514C40.4623 37.4235 41.5381 39.4071 41.4113 41.7873C41.2591 44.6493 39.8874 46.3909 37.3385 46.9576C35.1298 47.448 32.8303 46.2688 31.7101 43.9213C30.926 42.2756 30.311 40.5449 29.605 38.86C28.0114 35.0476 25.4709 32.0941 22.0026 29.9863C21.6074 29.7466 21.2756 29.4632 20.9987 29.0643C16.7019 22.8478 12.367 16.6596 8.09129 10.4256C6.63083 8.29599 5.77485 5.9637 6.67521 3.29791C6.70903 3.19764 6.74073 3.09302 6.79146 2.99929C6.82316 2.94044 6.88868 2.9012 7.00493 2.79221C8.73592 5.20516 10.4606 7.61156 12.1831 10.0201C16.2031 15.6416 20.2505 21.2435 24.2282 26.8977Z" fill="#D6A454"/>
<path d="M32.4732 41.1967C32.505 43.3459 34.4093 45.3011 36.4573 45.2945C38.332 45.288 39.8072 43.6859 39.7586 41.7089C39.7037 39.4791 38.0298 37.7375 35.9669 37.7658C34.0415 37.7898 32.4458 39.3592 32.4732 41.1967ZM37.8818 41.7678C37.8818 42.6811 37.2203 43.3633 36.3706 43.3372C35.4026 43.3066 34.3649 42.1884 34.367 41.1836C34.367 40.3945 35.1363 39.6905 36.0029 39.684C36.9857 39.6796 37.8818 40.6735 37.8818 41.7678Z" fill="#D6A454"/>
<path d="M20.4451 26.4574C20.4409 27.0655 20.8023 27.4731 21.4406 27.4775C22.1211 27.484 22.5185 27.0742 22.4952 26.4072C22.4762 25.7991 22.0704 25.446 21.4681 25.4329C20.8065 25.459 20.4472 25.8514 20.4451 26.4574Z" fill="#D6A454"/>
</g>
<defs>
<clipPath id="clip0_110_2538">
<rect width="49" height="43" fill="white" transform="translate(0.29248 49) rotate(-90)"/>
</clipPath>
</defs>
</svg>
